<svg xmlns="http://www.w3.org/2000/svg" viewBox="0 0 96 96" role="img" aria-label="Maya Chen, Evidence Auditor">
<defs><linearGradient id="b" x1="0" y1="0" x2="1" y2="1"><stop stop-color="#203d46"/><stop offset="1" stop-color="#0e2229"/></linearGradient><linearGradient id="s" x1="0" y1="0" x2="0" y2="1"><stop stop-color="#f1c7aa"/><stop offset="1" stop-color="#d89b78"/></linearGradient></defs>
<rect width="96" height="96" rx="20" fill="url(#b)"/><path d="M17 91c3-20 16-30 31-30s29 10 32 30" fill="#1c5960"/><ellipse cx="48" cy="43" rx="22" ry="27" fill="url(#s)"/><path d="M27 40c0-19 10-30 24-30 15 0 24 12 22 32-6-8-14-13-25-14-7 7-14 11-21 12z" fill="#182229"/><path d="M30 32c4-14 13-21 25-21 8 0 15 4 19 10-7-3-12-3-18-1-9-1-17 3-26 12z" fill="#222e35"/><ellipse cx="39" cy="43" rx="2.2" ry="2.6" fill="#2b2624"/><ellipse cx="57" cy="43" rx="2.2" ry="2.6" fill="#2b2624"/><path d="M43 54c4 3 8 3 12 0" fill="none" stroke="#934f4b" stroke-width="2" stroke-linecap="round"/><path d="M47 46l-2 5h5" fill="none" stroke="#b77760" stroke-width="1.4" stroke-linecap="round"/><path d="M34 37c3-2 6-2 9-1M53 36c3-1 6-1 9 1" fill="none" stroke="#46352f" stroke-width="1.5" stroke-linecap="round"/></svg>
